PathFileType	4	(X/Y/Z)	C:\Users\Basilio\Documents\Thesis Gigler\squatting_fais\c3dfiles\019\SLS_back_pre4\markers_experimental.trc
DataRate	CameraRate	NumFrames	NumMarkers	Units	OrigDataRate	OrigDataStartFrame	OrigNumFrames
200.000000	200.000000	4	59	mm	200.000000	349	1397
Frame#	Time	FHD			LBHD			RBHD			C7			T10			CLAV			LSHO			LUUPA			LMUPA			LDUPA			LLEP			LMEP			LRAD			LUL			LRFIN			RSHO			RUPA1			RMUPA			RDUPA			RLEP			RMEP			RRAD			RUL			RUFIN			LASI			RASI			USACR			LSACR			RSACR			LTHI1			LTHI2			LTHI3			LTHI4			LLFC			LTIB1			LTIB2			LTIB3			LTIB4			LLMAL			LMMAL			LHEE			LMT1			LMT2			LMT5			RTHI2			RTHI4			RLFC			RTIB1			RTIB2			RTIB3			RTIB4			RLMAL			RMMAL			RHEE			RMT1			RMT2			RMT5			RTHI3			RTHI			
		X1	Y1	Z1	X2	Y2	Z2	X3	Y3	Z3	X4	Y4	Z4	X5	Y5	Z5	X6	Y6	Z6	X7	Y7	Z7	X8	Y8	Z8	X9	Y9	Z9	X10	Y10	Z10	X11	Y11	Z11	X12	Y12	Z12	X13	Y13	Z13	X14	Y14	Z14	X15	Y15	Z15	X16	Y16	Z16	X17	Y17	Z17	X18	Y18	Z18	X19	Y19	Z19	X20	Y20	Z20	X21	Y21	Z21	X22	Y22	Z22	X23	Y23	Z23	X24	Y24	Z24	X25	Y25	Z25	X26	Y26	Z26	X27	Y27	Z27	X28	Y28	Z28	X29	Y29	Z29	X30	Y30	Z30	X31	Y31	Z31	X32	Y32	Z32	X33	Y33	Z33	X34	Y34	Z34	X35	Y35	Z35	X36	Y36	Z36	X37	Y37	Z37	X38	Y38	Z38	X39	Y39	Z39	X40	Y40	Z40	X41	Y41	Z41	X42	Y42	Z42	X43	Y43	Z43	X44	Y44	Z44	X45	Y45	Z45	X46	Y46	Z46	X47	Y47	Z47	X48	Y48	Z48	X49	Y49	Z49	X50	Y50	Z50	X51	Y51	Z51	X52	Y52	Z52	X53	Y53	Z53	X54	Y54	Z54	X55	Y55	Z55	X56	Y56	Z56	X57	Y57	Z57	X58	Y58	Z58	X59	Y59	Z59	

350	1.745	-223.688949584961	1708.992797851563	-664.5902099609376	-354.1643371582032	1682.466186523438	-807.0126953125002	-357.0393371582032	1675.734497070313	-667.1851806640626	-386.6630249023439	1503.505249023438	-726.6968994140626	-431.3283691406251	1214.033447265625	-726.6528930664064	-249.3806304931641	1457.274658203125	-734.7639770507814	-306.0471191406251	1505.759643554688	-870.8497314453127	-181.6581726074219	1454.689086914063	-926.282165527344	-156.6653442382813	1453.019897460938	-883.9291992187502	-115.3426361083985	1441.7705078125	-927.153747558594	-49.65951538085939	1393.963500976563	-950.7180786132815	-59.37207031250001	1341.173217773438	-924.9843750000002	188.6510925292969	1408.343139648438	-863.8399047851565	194.2475738525391	1359.298706054688	-907.3814086914065	263.2322998046876	1420.768676757813	-865.3616943359377	-294.1937561035157	1493.85791015625	-600.9050903320314	-181.9675445556641	1395.456787109375	-509.1477050781251	-151.0015258789063	1424.5888671875	-535.8577270507814	-115.7659454345703	1383.385009765625	-511.1517639160157	-40.19095993041993	1367.695434570313	-521.6896972656251	-55.42602539062501	1318.407348632813	-547.0299072265626	200.6304321289063	1398.654174804688	-588.8784790039064	211.9842834472657	1348.231567382813	-544.0762939453126	285.0761413574219	1405.516967773438	-573.9158325195314	-284.9044494628907	1007.106262207031	-853.2104492187502	-266.9018554687501	997.231140136719	-645.8905029296876	-435.6004333496095	1079.986450195313	-733.3088378906251	-443.319305419922	1048.047973632813	-761.5161132812501	-437.0614318847657	1047.6826171875	-703.7874755859376	-303.3116760253907	752.0360717773439	-931.0181274414065	-251.4113159179688	684.8750000000001	-937.0508422851565	-206.2084045410157	697.3722534179689	-923.728698730469	-264.3188476562501	625.9317016601564	-927.5642089843752	-261.9125061035157	541.6162109375001	-910.882263183594	-333.1209106445313	425.561981201172	-870.574645996094	-403.8033142089845	453.8241577148439	-914.6130981445315	-386.1451416015626	420.4320678710939	-892.833435058594	-452.2396240234376	384.3054199218751	-847.3400878906252	-603.9259643554689	392.1104125976564	-854.7727050781252	-573.8562011718751	380.9489440917969	-773.536071777344	-656.4069824218751	432.7220153808595	-795.981628417969	-586.8093872070314	232.0724182128907	-780.459411621094	-594.7396850585939	225.9101104736329	-818.7565917968752	-641.9286499023439	253.2082061767579	-862.4734497070315	-258.3308105468751	744.1765747070314	-596.2471923828126	-279.8838500976563	665.8115844726564	-599.2424926757814	-312.6616821289063	506.1961364746095	-640.6685180664064	-287.3540039062501	330.2128295898438	-717.6730957031251	-341.9612121582032	248.3274688720704	-666.4202270507814	-310.5595092773438	247.2658843994141	-701.6556396484376	-325.9030151367188	211.2527160644532	-745.1717529296876	-390.0372314453126	126.9365844726563	-706.4241333007814	-376.8876342773438	136.7392730712891	-782.5701904296877	-456.5704345703126	106.4591751098633	-758.9276123046876	-257.6158447265626	56.15705490112306	-787.3084716796877	-252.741439819336	59.22972106933595	-741.6557617187501	-292.1501159667969	47.95431518554688	-686.8007202148439	-234.7898864746094	754.7282104492189	-620.7703857421876	-300.9790954589844	793.4232177734377	-582.3568115234376	
351	1.75	-223.5001983642579	1708.925659179688	-664.4891967773439	-353.8379211425782	1682.439453125	-806.8300781250002	-356.8383789062501	1675.603149414063	-667.1269531250001	-386.3697204589845	1503.455932617188	-726.4961547851564	-431.3985595703126	1214.082885742188	-726.5831909179689	-249.1578216552735	1457.23779296875	-734.6218261718751	-305.8119506835938	1505.671875	-870.613220214844	-181.4586944580078	1454.581420898438	-926.143737792969	-156.3805694580078	1452.9658203125	-883.8253173828127	-115.17138671875	1441.578735351563	-927.1182250976565	-49.54463958740236	1393.671630859375	-950.6188964843752	-59.18931961059572	1340.955444335938	-924.7501220703127	188.8835144042969	1408.288818359375	-863.9312744140627	194.5089263916016	1359.134643554688	-907.3211059570315	263.3853149414063	1420.777465820313	-865.4200439453127	-294.1395263671876	1493.889404296875	-600.8880615234376	-181.845458984375	1395.3115234375	-508.999237060547	-150.7156219482422	1424.600830078125	-535.7854003906251	-115.7641143798828	1383.305908203125	-511.1449584960939	-40.04146957397462	1367.513916015625	-521.5545654296876	-55.24936676025392	1318.271118164063	-547.1920776367189	200.7174377441407	1398.551513671875	-588.9652099609376	212.1596069335938	1348.168090820313	-544.1898193359376	285.2687072753907	1405.367919921875	-573.9765014648439	-285.1770324707032	1007.024169921875	-853.049499511719	-267.2177124023438	997.155700683594	-645.7671508789064	-435.6653137207032	1080.0224609375	-733.2333984375001	-443.7460021972657	1048.049682617188	-761.4866333007814	-437.4114074707032	1047.737548828125	-703.7064819335939	-303.7991333007813	751.9545288085939	-931.1451416015627	-251.977279663086	684.8211669921876	-937.1437988281252	-206.5127258300782	697.2479858398439	-923.7644042968752	-264.7797851562501	625.7874755859376	-927.6326904296877	-262.2662048339844	541.4854736328126	-910.8255615234377	-333.5920104980469	425.409637451172	-870.6218872070315	-404.2250366210939	453.6992492675782	-914.529724121094	-386.6494140625001	420.3518981933595	-892.8247070312502	-452.6277160644532	384.2351684570314	-847.264343261719	-604.3922729492189	392.0578002929689	-854.537048339844	-574.2610473632814	380.9957275390626	-773.3190917968752	-656.7246704101564	432.7612915039064	-795.7317504882815	-587.3747558593751	232.1075439453126	-780.203552246094	-595.2769775390626	226.0390167236329	-818.4768066406252	-642.8977050781251	253.4623260498047	-862.1400146484377	-258.5963745117188	743.9787597656251	-595.8367919921876	-280.0609130859376	665.7490234375001	-599.0128784179689	-312.4561157226563	506.1607971191407	-640.4761962890626	-287.2067565917969	330.1395568847657	-717.4310302734376	-342.0435180664063	248.3369140625001	-666.2191772460939	-310.6137084960938	247.2830352783204	-701.3993530273439	-325.8270568847657	211.3007965087891	-745.0054321289064	-390.0072326660157	126.9235992431641	-706.3520507812501	-376.7283935546876	136.7880249023438	-782.2702636718752	-456.6295166015626	106.4561614990235	-758.8591308593751	-257.5926818847657	56.31227493286134	-787.255554199219	-252.7316589355469	59.27125549316408	-741.6396484375001	-292.1585998535157	47.90763092041016	-686.8051147460939	-235.6526489257813	754.4899291992189	-620.5131225585939	-301.2272644042969	793.3521728515627	-581.9815063476564	
352	1.755	-223.3813018798829	1708.867797851563	-664.1990356445314	-353.3699035644532	1682.272705078125	-806.773620605469	-356.6264953613282	1675.4658203125	-667.0392456054689	-386.2158813476564	1503.390869140625	-726.3299560546876	-431.3848876953126	1214.049682617188	-726.4816284179689	-248.9630737304688	1457.078857421875	-734.4669799804689	-305.5046081542969	1505.655883789063	-870.4121704101565	-181.225082397461	1454.421997070313	-926.0172119140627	-156.1160583496094	1452.900268554688	-883.7023925781252	-114.9828262329102	1441.474365234375	-927.0224609375002	-49.4540481567383	1393.416381835938	-950.5059814453127	-58.96971511840822	1340.742553710938	-924.435485839844	189.2040100097657	1408.292724609375	-863.9747314453127	194.648422241211	1359.104736328125	-907.3179321289065	263.5590515136719	1420.72900390625	-865.5474243164065	-294.1442260742188	1493.875732421875	-600.8458251953126	-181.623291015625	1395.141967773438	-508.8030700683595	-150.5296020507813	1424.579223632813	-535.6423950195314	-115.489372253418	1383.23486328125	-511.0773315429689	-39.94392776489259	1367.36572265625	-521.5476074218751	-55.18072891235353	1318.022583007813	-547.5574340820314	200.9342651367188	1398.544677734375	-588.9070434570314	212.2373504638672	1348.100341796875	-544.3785400390626	285.1547851562501	1405.501342773438	-574.1940917968751	-285.4156494140626	1006.982666015625	-852.8371582031252	-267.5064697265626	997.0252075195315	-645.5853271484376	-436.0600891113282	1079.978393554688	-733.1743774414064	-443.8833618164064	1048.040405273438	-761.4635009765626	-437.5532531738282	1047.7490234375	-703.6701049804689	-304.2774047851563	751.8134155273439	-931.152770996094	-252.2720947265626	684.6076660156251	-937.128845214844	-206.9893493652344	697.0605468750001	-923.8594970703127	-265.2120666503907	625.6782226562501	-927.6606445312502	-262.6830749511719	541.3605346679689	-910.8485107421877	-334.0478210449219	425.0525512695314	-870.7980957031252	-404.7213134765626	453.6606445312501	-914.4989013671877	-387.175506591797	420.2762756347657	-892.8067016601565	-452.9697570800782	384.2171325683595	-847.1740722656252	-604.7863769531251	392.060760498047	-854.3696289062502	-574.5673828125001	381.0179443359376	-773.0942993164065	-657.1098022460939	432.8484191894532	-795.508728027344	-587.8675537109376	232.1116027832032	-779.8635253906252	-595.8214721679689	226.1702728271485	-818.207946777344	-643.5427856445314	253.522689819336	-861.9050903320315	-259.1298522949219	743.3845825195314	-595.9735107421876	-280.1638488769532	665.6893920898439	-598.6983032226564	-312.2513427734376	505.9273681640626	-640.2481079101564	-286.9691162109376	329.7350769042969	-717.0769653320314	-341.9490051269532	248.3262329101563	-666.0341796875001	-310.5898742675782	247.2304382324219	-701.2252197265626	-325.7383728027344	211.2625579833985	-744.8523559570314	-390.0001525878907	126.9451217651367	-706.2564697265626	-376.6665039062501	136.9073486328125	-782.267517089844	-456.6378784179689	106.4937515258789	-758.8516845703126	-257.5552368164063	56.42220687866212	-787.241882324219	-252.7499694824219	59.29207611083986	-741.5330810546876	-292.2102661132813	47.88076782226563	-686.7404785156251	-235.6367950439454	754.3783569335939	-620.0895385742189	-301.5997924804688	793.2668457031252	-581.8734741210939	
353	1.76	-223.2605133056641	1708.7724609375	-664.1672363281251	-353.0779113769532	1682.156127929688	-806.729431152344	-356.4834594726563	1675.314331054688	-666.9902954101564	-386.0083923339845	1503.334228515625	-726.1964721679689	-431.4492797851564	1214.083129882813	-726.4101562500001	-248.7309722900391	1456.921752929688	-734.1995849609376	-305.4977722167969	1505.576416015625	-870.2681884765627	-181.0308380126953	1454.286743164063	-925.8745727539065	-155.8042755126953	1452.8349609375	-883.6004638671877	-114.7466659545899	1441.261840820313	-926.9418945312502	-49.23064041137697	1393.130737304688	-950.4172973632815	-58.76403427124025	1340.517456054688	-924.091247558594	189.476806640625	1408.180786132813	-864.0139770507815	194.8946075439454	1358.916870117188	-907.2622680664065	263.9553222656251	1420.59033203125	-865.6180419921877	-294.1275634765626	1493.892211914063	-600.7644653320314	-181.5057830810547	1395.191284179688	-508.7791748046876	-150.5888977050782	1424.968505859375	-535.5311889648439	-115.3814163208008	1383.188598632813	-511.0007934570314	-39.78099060058594	1367.27001953125	-521.4675903320314	-54.99635314941408	1318.118530273438	-547.1417236328126	200.9738769531251	1398.484985351563	-589.0175170898439	212.3378295898438	1347.959716796875	-544.6176147460939	285.3974304199219	1405.452270507813	-574.3183593750001	-285.5900268554688	1006.894897460938	-852.570983886719	-267.7955932617188	996.9624023437502	-645.4077758789064	-436.189910888672	1080.040771484375	-733.1528930664064	-444.0626525878907	1048.066528320313	-761.4232788085939	-437.8154296875001	1047.765869140625	-703.6303100585939	-304.6544189453126	751.6677246093751	-931.1005859375002	-252.6843414306641	684.5075073242189	-937.224304199219	-207.3716583251954	696.9226684570314	-923.9162597656252	-265.7287902832032	625.6094360351564	-927.699401855469	-263.0050659179688	541.2088012695314	-910.8176269531252	-334.4748229980469	425.1475524902345	-870.6158447265627	-405.3430480957032	453.6256408691407	-914.4169921875002	-387.7487792968751	420.3002929687501	-892.865417480469	-453.4868469238282	384.1753234863282	-847.121765136719	-605.2164916992189	392.0806884765626	-854.1787719726565	-574.9986572265626	381.0816040039063	-772.9461669921877	-657.4587402343751	432.9715576171876	-795.3208618164065	-588.3939819335939	232.2252349853516	-779.587097167969	-596.3530883789064	226.3521881103516	-817.8666992187502	-644.0293579101564	253.5150756835938	-861.596374511719	-259.3440551757813	743.0987548828126	-596.1837768554689	-280.3005676269532	665.5453491210939	-598.4267578125001	-312.1003112792969	505.5974731445314	-640.0623168945314	-286.8446655273438	329.6617736816407	-716.9287719726564	-341.9710998535157	248.3199157714844	-665.9386596679689	-310.5258483886719	247.2453918457032	-701.1120605468751	-325.6483459472657	211.2759094238282	-744.7803344726564	-389.9096069335939	126.9407348632813	-706.2133789062501	-376.5056457519532	137.0553131103516	-782.062194824219	-456.5751342773439	106.4711608886719	-758.8297119140626	-257.5551757812501	56.47702026367189	-787.233825683594	-252.6884918212891	59.18398666381837	-741.5147094726564	-292.1476440429688	47.83391571044923	-686.7775268554689	-236.5702819824219	753.9851684570314	-620.0148925781251	-301.8887329101563	793.0930786132815	-581.4573974609376	
